<svg width="19" height="19" fill="none" xmlns="http://www.w3.org/2000/svg"><g clip-path="url(#a)"><path d="M9.5 18.963A9.463 9.463 0 1 0 9.5.037a9.463 9.463 0 1 0 0 18.926Z" fill="#fff" stroke="#fff" stroke-width="5"/><path d="M15.595 6.079s-1.423.643-1.588 1.956c-.164 1.313-1.393 2.627-2.598 3.009-1.182.375-1.984 1.454-3.333.79-1.703-.84-4.494-2.198-5.69-1.877.269-.315.802-.804.945-1.193.212-.59.32-.965.388-1.424.139-.948 1.323-2.816 2.914-3.772.563-.338 1.444-1.415 2.406-1.203 1.024.225 1.808-.453 2.632.005.823.458 1.837 1.727 2.214 2.397.573 1.018 1.71 1.312 1.71 1.312Z" fill="#95001A"/><path d="M13.841 6.734s-.497 3.988-3.234 3.748c-2.737-.24-1.832-1.34-6.943-1.512 0 0 1.366-1.281 4.094-1.573 2.73-.29 6.083-.663 6.083-.663Z" fill="#780016"/><path d="M11.873 3.549c.79.915 1.424 2.576 3.615 2.54 0 0-1.912.548-3.28-.465-.777-.575-2.233-.838-2.233-.838L3.663 8.97l-1.39.995C3.51 8.922 4.63 7.923 5.303 6.682 5.969 5.456 6.8 5.325 8.005 4.58c1.006-.621 1.147-1.045 1.31-1.015 1.861.343 1.971-.694 2.558-.016Z" fill="#69001F"/><path d="M14.881 6.172c-.667.267-.836.543-1.125.79-.887.76-1.49 1.194-2.18 1.353-1.28.293-2.964.05-5.55.175-1.283.061-2.03.336-2.536.61 0 0 1.689-1.927 3.218-2.723 1.417-.737 1.89-1.472 2.84-1.713.665-.17.82-.059 1.58-.192.333-.058.782.442.984.601.672.53 1.632 1.095 2.77 1.099Z" fill="#36000A"/><path d="M6.89 10.858c.978.843 2.53 1.64 4.176.917 1.647-.724 2.573-1.88 2.943-3.166.021.481-.038 1.475-.891 2.493-.285.34-.706.83-1.52 1.195a4.912 4.912 0 0 1-2.517.38c-.326-.04-.652-.12-1.632-.593-1.96-.945-2.408-1.472-3.784-1.855a8.679 8.679 0 0 0-1.392-.263l.584-.419s3.053.467 4.032 1.31Z" fill="#69001F"/><path d="M15.488 6.089s-1.297.747-2.468 2.119c0 0 .69-1.811 1.573-2.047 0 0 .71-.027.895-.072Z" fill="#810716"/><path d="M11.695 2.01c.567.3.862.412 1.251.97.285.41.663 1.206.976 1.723.543.896.976.958 1.56 1.384 0 0-1.455-.124-2.467-2.147-.264-.528-.759-1.225-1.441-1.384-.318-.074-.678-.031-1.073.201-.775.455-1.187-.066-1.747.097-.576.168-.628.63-1.569.88C4.118 4.863 4.81 8.426 2.273 9.966c0 0 .77-.655 1.126-1.794.578-1.85 1.106-3.314 2.686-4.405.632-.435 1.126-.784 2.238-1.51.407-.265 1.256-.012 1.792-.11 1.165-.213 1.028-.427 1.58-.136Z" fill="#B50018"/><path d="M10.481 7.417S7.14 6.542 4.46 8.696c0 0 4.98 1.152 4.127 3.583-1.742 4.959 2.647 5.13 6.384 1.304 1.484-1.52 1.52-4.764-.932-6.982 0 0-1.996-.641-3.558.816Z" fill="#F21B4E"/><path d="M15.864 10.547c-.37.743-2.367 3.573-4.524 3.78-2.717.26-.797-3.412-2.739-4.361C6.66 9.016 5.512 8.87 5.512 8.87s.42-.677 1.45-1.331c1.881-.36 3.519-.123 3.519-.123a3.706 3.706 0 0 1 2.721-1.001c.255.03.463.11.733.155 1.354 1.225 1.957 2.655 1.93 3.976Z" fill="#FE677E"/><path d="M15.756 12.192c-.022.057-.034.576-.735 1.342-4.62 4.42-8.13 3.388-6.565-1.21.83-2.439-4.087-3.598-4.087-3.598 2.497-2.24 6.111-1.309 6.111-1.309l.048-.043c0 .004 0 .007.002.01.15.086.296.18.436.282l-.045-.155-.383-.145-.009.008c.01-.01.376-.47 1.06-.766.697-.3 1.906-.406 2.5.03-1.117-.393-2.513.202-2.764 1.305l-.014-.006c1.029.893 1.656 2.176 1.499 3.37-.49-1.29-.942-2.18-1.858-3.245-.52-.171-2.293-.706-3.44-.46-1.357.289-1.613 1.313-.768 1.882.846.569 1.933.763 2.138 1.711.204.949-.37 1.957-.448 2.86-.09 1.024.228 1.91 1.28 1.929 1.743.031 4.678-1.643 6.042-3.792Z" fill="#B6044A"/><path d="M10.966 7.666a4.928 4.928 0 0 0-.436-.282.061.061 0 0 1-.002-.01l.009-.007.384.145.045.154Z" fill="#D33886"/><path d="M14.534 7.404c.04.058.463.682.253.809-.188.114-.905-.16-1.13-.63-.153-.319-.09-.745.102-.805.233-.072.624.406.775.626Zm-3.539 1.171c.75.724 1.05 1.596.94 1.641-.025.01-.208-.179-.572-.557-.516-.537-.654-.702-.79-.919-.025-.041-.354-.574-.245-.63.092-.047.462.268.667.465ZM9.25 14.947c-.071.07.305.451.867.517.256.03.563-.005.585-.063.01-.029-.043-.069-.496-.21-.61-.19-.915-.286-.957-.244Zm-.187-.928c-.026.09.166.178.24.146.044-.02.049-.085.035-.126a.16.16 0 0 0-.175-.1c-.048.01-.09.045-.1.08Zm.176-6.023c-.023.18-.567.382-1.02.375-.433-.007-.886-.206-.84-.386.042-.17.516-.296.853-.317.487-.03 1.03.14 1.007.328Z" fill="#FFD6EE"/><path d="M12.605 3.1c.282.69-.096-.07-.48-.414-.346-.31-.828-.329-.742-.427.015-.031.28-.032.484.042.31.112.598.456.738.799Z" fill="#F79B7F"/><path d="M7.003 5.135c.069.039.981-.553 1.407-.857.454-.27.462-.482.715-.592.114-.05.21-.094.581-.08-.287-.095-.414-.107-.47-.343-.059-.244-.43-.988-.654-.96-.225.028-.152.8-.583 1.536-.449.766-1.078 1.25-.996 1.296Z" fill="#B50018"/><path d="M8.42 3.68c-.055.252-.082.379-.045.39.102.027.534-.282.52-.582-.01-.188-.193-.351-.296-.325-.023.006-.073.03-.18.516ZM4.7 5.923c-.363 1.315.159.198.533-.419.38-.625 1.346-1.405.647-1.124-.478.192-1.083 1.187-1.18 1.543Z" fill="#F79B7F"/><path d="M9.752 3.593c.909.15 1.473-.286 1.892-.177.281.073.414.493.713.753-.604-.615-.556-1.514-.918-1.675-.437-.075.207.383-.363.722-.269.278-.952.369-1.324.377Z" fill="#B50018"/><path d="M10.955 3.093c-.165.148-.573.347-.552.373.056.07.789-.172.929-.388.185-.254.05-.541-.04-.558-.2-.038-.02.289-.337.573Zm-2.427-.737c-.044.107.444.396.803.307.14-.035.333-.183.33-.26-.002-.107-.459-.121-.67-.12-.147 0-.43-.011-.463.073Z" fill="#F79B7F"/></g><defs><clipPath id="a"><rect width="19" height="19" rx="9.5" fill="#fff"/></clipPath></defs></svg>