<svg width="19" height="19" viewBox="0 0 19 19" fill="none" xmlns="http://www.w3.org/2000/svg">
<g clip-path="url(#clip0_108_189)">
<path d="M9.50003 18.9628C14.7263 18.9628 18.963 14.7261 18.963 9.49984C18.963 4.27358 14.7263 0.0368652 9.50003 0.0368652C4.27377 0.0368652 0.0370483 4.27358 0.0370483 9.49984C0.0370483 14.7261 4.27377 18.9628 9.50003 18.9628Z" fill="white" stroke="white" stroke-width="5"/>
<path d="M15.5954 6.07896C15.5954 6.07896 14.1718 6.72214 14.0073 8.03529C13.8429 9.34845 12.6138 10.6618 11.4095 11.0439C10.2274 11.4193 9.42469 12.4975 8.07594 11.8331C6.37302 10.9941 3.58205 9.63552 2.3866 9.95733C2.65487 9.64154 3.18794 9.15337 3.33094 8.76447C3.54297 8.17424 3.65153 7.79929 3.71885 7.33984C3.85799 6.3918 5.04174 4.52438 6.63318 3.56754C7.19639 3.22987 8.07661 2.15305 9.03921 2.36503C10.0629 2.59046 10.8466 1.91205 11.6705 2.36978C12.4944 2.82751 13.5078 4.09676 13.8849 4.76651C14.4584 5.78512 15.5954 6.07896 15.5954 6.07896Z" fill="#95001A"/>
<path d="M13.841 6.73413C13.841 6.73413 13.3443 10.7216 10.6069 10.4822C7.86954 10.2427 8.77514 9.14263 3.66357 8.97047C3.66357 8.97047 5.0299 7.68883 7.75849 7.39746C10.4871 7.1061 13.841 6.73413 13.841 6.73413Z" fill="#780016"/>
<path d="M11.8727 3.54901C12.6638 4.46367 13.2968 6.12463 15.4881 6.08904C15.4881 6.08904 13.5755 6.63724 12.2079 5.62445C11.4314 5.04902 9.9749 4.78592 9.9749 4.78592L3.66347 8.97049L2.27313 9.96549C3.50975 8.92203 4.6291 7.92317 5.30293 6.68205C5.96905 5.45551 6.79961 5.32516 8.00477 4.58044C9.01069 3.95884 9.15164 3.53491 9.31566 3.56515C11.1763 3.90821 11.2861 2.87075 11.8727 3.54901Z" fill="#69001F"/>
<path d="M14.8812 6.17177C14.2141 6.43912 14.0451 6.71461 13.7563 6.96223C12.8687 7.72268 12.2669 8.1564 11.5751 8.31505C10.2969 8.60791 8.61208 8.3654 6.02587 8.48953C4.74337 8.55128 3.99628 8.82571 3.48969 9.09974C3.48969 9.09974 5.17871 7.1728 6.70797 6.37719C8.12489 5.64011 8.59821 4.90519 9.54816 4.66351C10.2126 4.49447 10.3671 4.60522 11.1273 4.47201C11.461 4.41353 11.9096 4.91374 12.1119 5.07322C12.7836 5.60256 13.7443 6.16791 14.8812 6.17177Z" fill="#36000A"/>
<path d="M6.88923 10.8579C7.86836 11.7013 9.41907 12.4986 11.066 11.7748C12.713 11.051 13.6388 9.89438 14.0086 8.60889C14.03 9.0902 13.9711 10.0839 13.118 11.1016C12.8328 11.4421 12.4122 11.9315 11.5988 12.2975C10.4374 12.8202 9.32774 12.7066 9.08054 12.6765C8.75488 12.6367 8.42943 12.5576 7.44858 12.0842C5.48924 11.1387 5.04138 10.612 3.66497 10.2293C3.20897 10.1036 2.74348 10.0154 2.27313 9.96556L2.85735 9.54749C2.85735 9.54749 5.91031 10.0142 6.88923 10.8579Z" fill="#69001F"/>
<path d="M15.4881 6.08887C15.4881 6.08887 14.1906 6.83603 13.02 8.20793C13.02 8.20793 13.7093 6.39674 14.5932 6.16133C14.5924 6.16133 15.3031 6.13432 15.4881 6.08887Z" fill="#810716"/>
<path d="M11.6952 2.01079C12.2625 2.30943 12.5574 2.42156 12.9462 2.98075C13.2313 3.39073 13.6087 4.18628 13.9217 4.70286C14.4646 5.5986 14.8982 5.66079 15.4817 6.08661C15.4817 6.08661 14.0268 5.9631 13.0152 3.94031C12.7511 3.41234 12.2564 2.71484 11.574 2.55601C11.2556 2.48191 10.8964 2.52505 10.5007 2.7573C9.72613 3.21194 9.31358 2.69093 8.75358 2.85402C8.17792 3.02168 8.12604 3.48362 7.18507 3.73446C4.11794 4.86261 4.8085 8.42561 2.27313 9.96562C2.27313 9.96584 3.0434 9.31062 3.39902 8.17201C3.97672 6.32236 4.50454 4.85783 6.08525 3.76744C6.71699 3.33165 7.21107 2.98316 8.3232 2.25779C8.73009 1.9924 9.57862 2.24512 10.1148 2.14708C11.2801 1.93401 11.1432 1.72022 11.6952 2.01079Z" fill="#B50018"/>
<path d="M10.4811 7.41725C10.4811 7.41725 7.13982 6.54191 4.4599 8.69571C4.4599 8.69571 9.44088 9.84761 8.58673 12.279C6.845 17.2375 11.2339 17.4082 14.9707 13.5828C16.4546 12.0636 16.491 8.81934 14.0389 6.60144C14.0389 6.60144 12.0434 5.95959 10.4811 7.41725Z" fill="#F21B4E"/>
<path d="M15.8642 10.5473C15.494 11.2899 13.4973 14.1203 11.3405 14.3268C8.62266 14.5866 10.5432 10.9147 8.60122 9.96563C6.65924 9.01652 5.51245 8.87073 5.51245 8.87073C5.51245 8.87073 5.93245 8.19389 6.96111 7.53957C8.84327 7.1796 10.481 7.41715 10.481 7.41715C11.4201 6.54114 12.4885 6.38421 13.2022 6.41551C13.4565 6.44638 13.6653 6.52515 13.9346 6.57103C15.2891 7.79585 15.8915 9.22619 15.8642 10.5473Z" fill="#FE677E"/>
<path d="M15.7558 12.192C15.7344 12.2491 15.7224 12.7677 15.0209 13.5341C10.4013 17.9547 6.89086 16.922 8.45593 12.3248C9.2867 9.88539 4.36871 8.72585 4.36871 8.72585C6.86639 6.48587 10.4804 7.41729 10.4804 7.41729C10.4963 7.40249 10.512 7.38834 10.5278 7.37441C10.5283 7.37759 10.5289 7.38074 10.5298 7.38384C10.68 7.47002 10.8255 7.56405 10.9658 7.66556L10.9214 7.51141L10.5375 7.36648L10.5291 7.37398C10.5397 7.36335 10.9045 6.90463 11.5896 6.60849C12.2864 6.3073 13.4953 6.20239 14.0894 6.63774C12.9716 6.24491 11.5765 6.83952 11.3247 7.94277L11.3106 7.93719C12.3397 8.82993 12.9668 10.1129 12.8098 11.3077C12.3199 10.0175 11.8678 9.1275 10.9517 8.0624C10.4318 7.89088 8.65917 7.35619 7.51195 7.60124C6.15506 7.89088 5.89864 8.91504 6.74443 9.48404C7.59021 10.053 8.67739 10.2466 8.8815 11.1951C9.0856 12.1436 8.51253 13.1515 8.43363 14.0541C8.34401 15.0795 8.66239 15.9641 9.71377 15.9836C11.4574 16.0153 14.392 14.3413 15.7558 12.192Z" fill="#B6044A"/>
<path d="M10.9662 7.66559C10.8259 7.56409 10.6804 7.47006 10.5302 7.38388C10.5293 7.38078 10.5287 7.37763 10.5283 7.37445L10.5366 7.36694L10.9214 7.51166L10.9662 7.66559Z" fill="#D33886"/>
<path d="M14.5343 7.40379C14.5742 7.46189 14.9968 8.08598 14.7871 8.21269C14.5993 8.32653 13.8817 8.0534 13.6562 7.58216C13.504 7.264 13.5679 6.83822 13.7593 6.7784C13.9919 6.70594 14.3832 7.18382 14.5343 7.40379Z" fill="#FFD6EE"/>
<path d="M10.9953 8.57545C11.7457 9.29946 12.0459 10.171 11.9352 10.2162C11.9097 10.2267 11.7273 10.0374 11.3632 9.65879C10.847 9.12173 10.7085 8.95708 10.5734 8.74032C10.5477 8.69873 10.2188 8.16575 10.3275 8.11043C10.4197 8.06348 10.7904 8.37757 10.9953 8.57545Z" fill="#FFD6EE"/>
<path d="M9.24945 14.9468C9.17891 15.0171 9.55538 15.3983 10.1175 15.4637C10.3733 15.4933 10.6799 15.4592 10.7019 15.4007C10.7127 15.3722 10.6591 15.3323 10.2058 15.1908C9.59526 15.0006 9.29061 14.9048 9.24945 14.9468Z" fill="#FFD6EE"/>
<path d="M9.06264 14.0188C9.03734 14.1084 9.22945 14.1967 9.30256 14.1652C9.34737 14.1457 9.35166 14.0795 9.33773 14.0385C9.32426 14.0044 9.29956 13.9759 9.2677 13.9578C9.23584 13.9397 9.19874 13.933 9.16256 13.9388C9.11539 13.9487 9.07251 13.9838 9.06264 14.0188Z" fill="#FFD6EE"/>
<path d="M9.23893 7.99636C9.21577 8.17623 8.67228 8.37755 8.21991 8.3709C7.78576 8.36447 7.33339 8.16466 7.3782 7.985C7.42108 7.81563 7.89489 7.68872 8.23192 7.66813C8.71881 7.63748 9.26294 7.80834 9.23893 7.99636Z" fill="#FFD6EE"/>
<path d="M12.6055 3.09983C12.8873 3.79076 12.5095 3.02974 12.1257 2.68613C11.7792 2.37594 11.2973 2.3574 11.383 2.25881C11.3981 2.22792 11.6625 2.22702 11.8668 2.30107C12.1765 2.41329 12.4655 2.75664 12.6055 3.09983Z" fill="#F79B7F"/>
<path d="M7.00283 5.1351C7.07166 5.17369 7.98422 4.5822 8.4098 4.27776C8.86426 4.00783 8.87158 3.79611 9.12482 3.6855C9.23936 3.63547 9.33474 3.59206 9.70649 3.60638C9.41851 3.5108 9.29229 3.49872 9.23581 3.26298C9.17733 3.01885 8.80683 2.27489 8.58193 2.30276C8.35703 2.33064 8.43019 3.10294 7.99869 3.83919C7.54998 4.60481 6.92072 5.08922 7.00283 5.1351Z" fill="#B50018"/>
<path d="M8.41973 3.67913C8.36452 3.93207 8.33767 4.05854 8.37506 4.06908C8.47669 4.09744 8.90879 3.78803 8.89449 3.48792C8.88546 3.29997 8.70228 3.13661 8.59889 3.16296C8.57631 3.16898 8.52587 3.19232 8.41973 3.67913Z" fill="#F79B7F"/>
<path d="M4.69934 5.92303C4.33694 7.23786 4.8585 6.12075 5.2334 5.50396C5.61344 4.87872 6.57938 4.09902 5.88032 4.37973C5.4015 4.572 4.79736 5.5674 4.69934 5.92303Z" fill="#F79B7F"/>
<path d="M9.75171 3.59288C10.6608 3.74322 11.2245 3.30688 11.6437 3.41612C11.9251 3.48944 12.058 3.90947 12.3567 4.16916C11.7531 3.55363 11.801 2.65493 11.4386 2.49399C11.0016 2.41901 11.6462 2.87737 11.0764 3.21602C10.807 3.49385 10.1243 3.58487 9.75171 3.59288Z" fill="#B50018"/>
<path d="M10.9548 3.09313C10.7902 3.24085 10.3821 3.43976 10.4028 3.46574C10.4591 3.53617 11.1916 3.2936 11.3317 3.07845C11.5175 2.82432 11.3814 2.53688 11.2918 2.51987C11.0918 2.48188 11.2716 2.80877 10.9548 3.09313Z" fill="#F79B7F"/>
<path d="M8.52758 2.35557C8.48439 2.46332 8.97229 2.75216 9.33096 2.66264C9.47054 2.62782 9.66389 2.47984 9.6618 2.40213C9.65881 2.29632 9.20239 2.28157 8.99138 2.28245C8.84357 2.28307 8.56136 2.27158 8.52758 2.35557Z" fill="#F79B7F"/>
</g>
<defs>
<clipPath id="clip0_108_189">
<rect width="19" height="19" rx="9.5" fill="white"/>
</clipPath>
</defs>
</svg>
